PathFileType	4	(X/Y/Z)	RBDS024static.trc
DataRate	CameraRate	NumFrames	NumMarkers	Units	OrigDataRate	OrigDataStartFrame	OrigNumFrames
150.000000	150.000000	4	48	mm	150.000000	112	150
Frame#	Time	L.Ankle			L.Ankle.Medial			L.ASIS			L.GTR			L.Heel.Bottom			L.Heel.Lateral			L.Heel.Top			L.HF			L.Iliac.Crest			L.Knee			L.Knee.Medial			L.MT1			L.MT2			L.MT5			L.PSIS			L.Shank.Bottom.Lateral			L.Shank.Bottom.Medial			L.Shank.Top.Lateral			L.Shank.Top.Medial			L.Thigh.Bottom.Lateral			L.Thigh.Bottom.Medial			L.Thigh.Top.Lateral			L.Thigh.Top.Medial			L.TT			R.Ankle			R.Ankle.Medial			R.ASIS			R.GTR			R.Heel.Bottom			R.Heel.Lateral			R.Heel.Top			R.HF			R.Iliac.Crest			R.Knee			R.Knee.Medial			R.MT1			R.MT2			R.MT5			R.PSIS			R.Shank.Bottom.Lateral			R.Shank.Bottom.Medial			R.Shank.Top.Lateral			R.Shank.Top.Medial			R.Thigh.Bottom.Lateral			R.Thigh.Bottom.Medial			R.Thigh.Top.Lateral			R.Thigh.Top.Medial			R.TT			
		X1	Y1	Z1	X2	Y2	Z2	X3	Y3	Z3	X4	Y4	Z4	X5	Y5	Z5	X6	Y6	Z6	X7	Y7	Z7	X8	Y8	Z8	X9	Y9	Z9	X10	Y10	Z10	X11	Y11	Z11	X12	Y12	Z12	X13	Y13	Z13	X14	Y14	Z14	X15	Y15	Z15	X16	Y16	Z16	X17	Y17	Z17	X18	Y18	Z18	X19	Y19	Z19	X20	Y20	Z20	X21	Y21	Z21	X22	Y22	Z22	X23	Y23	Z23	X24	Y24	Z24	X25	Y25	Z25	X26	Y26	Z26	X27	Y27	Z27	X28	Y28	Z28	X29	Y29	Z29	X30	Y30	Z30	X31	Y31	Z31	X32	Y32	Z32	X33	Y33	Z33	X34	Y34	Z34	X35	Y35	Z35	X36	Y36	Z36	X37	Y37	Z37	X38	Y38	Z38	X39	Y39	Z39	X40	Y40	Z40	X41	Y41	Z41	X42	Y42	Z42	X43	Y43	Z43	X44	Y44	Z44	X45	Y45	Z45	X46	Y46	Z46	X47	Y47	Z47	X48	Y48	Z48	

113	0.7466666666666667	718.3743896484375	108.3102874755859	1047.04833984375	736.337158203125	115.3307418823242	1133.730102539063	905.7208251953125	1014.603820800781	1097.125122070313	812.1904907226563	922.4320678710938	1031.4697265625	645.6764526367188	41.08359146118164	1090.173950195313	667.9419555664063	61.43039703369141	1047.850830078125	654.6995239257813	85.32561492919922	1091.592651367188	773.2374267578125	468.3318786621094	1036.40283203125	811.408447265625	1083.53173828125	1044.32373046875	785.4852294921875	530.0235595703125	1040.88916015625	767.4896240234375	517.979248046875	1166.397338867188	869.5955200195313	54.66986846923828	1128.105590820313	876.0079345703125	66.18220520019531	1089.10595703125	834.5839233398438	49.09753799438477	1013.248779296875	720.5000610351563	1055.34033203125	1160.087280273438	728.1887817382813	183.0540313720703	1039.23046875	683.216796875	187.9059295654297	1063.759155273438	730.7479858398438	262.000244140625	1020.98388671875	685.08447265625	271.13916015625	1047.421752929688	780.408447265625	654.3717651367188	1022.598327636719	719.62158203125	656.0907592773438	1060.724609375	778.1499633789063	764.794189453125	1020.609436035156	723.5233154296875	766.6734619140625	1062.00146484375	823.2077026367188	450.4693298339844	1090.570068359375	705.5645141601563	109.4638290405273	1410.829345703125	726.7615966796875	115.2615966796875	1322.472778320313	894.6610107421875	1011.671752929688	1336.634155273438	805.2095336914063	924.0142211914063	1396.09228515625	635.5654907226563	43.61800765991211	1366.432739257813	666.748291015625	63.08734893798828	1411.37060546875	644.0146484375	87.34040832519531	1366.018310546875	775.8666381835938	475.5414733886719	1408.760375976563	821.123046875	1081.729370117188	1384.725463867188	794.2792358398438	537.1924438476563	1400.42578125	776.577392578125	515.0447998046875	1275.4931640625	852.8033447265625	56.82355499267578	1323.844848632813	860.970458984375	73.54047393798828	1369.04345703125	827.946044921875	51.71636962890625	1440.732788085938	721.1948852539063	1051.99560546875	1263.4658203125	705.293212890625	191.6761322021484	1417.606811523438	667.6629638671875	199.4217529296875	1376.880493164063	707.1414184570313	272.40283203125	1428.9951171875	671.6163940429688	279.5563049316406	1389.206298828125	771.4308471679688	656.1806030273438	1412.949340820313	714.7285766601563	657.239990234375	1366.01416015625	770.3031616210938	765.9674072265625	1412.110107421875	717.3807983398438	766.7020874023438	1367.414306640625	826.8789672851563	449.7614440917969	1358.894409179688	
114	0.7533333333333334	718.3773803710938	108.2964019775391	1047.057495117188	736.32470703125	115.3359603881836	1133.721435546875	905.6988525390625	1014.592102050781	1097.127075195313	812.1700439453125	922.43408203125	1031.470825195313	645.6678466796875	41.08453369140625	1090.174682617188	667.9464721679688	61.4283447265625	1047.839721679688	654.6988525390625	85.32168579101563	1091.597045898438	773.22265625	468.3379516601563	1036.392944335938	811.3901977539063	1083.526489257813	1044.323852539063	785.48486328125	530.0149536132813	1040.886474609375	767.4865112304688	517.9898681640625	1166.394409179688	869.5973510742188	54.67557525634766	1128.1015625	876.0191040039063	66.19612884521484	1089.111328125	834.5739135742188	49.10504150390625	1013.237182617188	720.4721069335938	1055.3359375	1160.083374023438	728.1846923828125	183.0490112304688	1039.224609375	683.21435546875	187.9041748046875	1063.756103515625	730.7409057617188	261.9966735839844	1020.977478027344	685.0829467773438	271.1502075195313	1047.413208007813	780.4034423828125	654.369873046875	1022.593322753906	719.6110229492188	656.0897216796875	1060.708618164063	778.1455078125	764.795654296875	1020.600402832031	723.505126953125	766.6825561523438	1061.98974609375	823.2186889648438	450.48193359375	1090.557983398438	705.580810546875	109.4703979492188	1410.831298828125	726.766357421875	115.2637786865234	1322.4775390625	894.6416015625	1011.677001953125	1336.626586914063	805.1812133789063	924.01513671875	1396.093505859375	635.5685424804688	43.61521148681641	1366.423950195313	666.7489624023438	63.08578491210938	1411.369140625	644.0238647460938	87.34390258789063	1366.015991210938	775.85205078125	475.5416870117188	1408.7607421875	821.0995483398438	1081.728271484375	1384.720581054688	794.274169921875	537.2001953125	1400.419555664063	776.5718383789063	515.0452270507813	1275.486083984375	852.8019409179688	56.82996368408203	1323.844970703125	860.967529296875	73.53681945800781	1369.043823242188	827.9468383789063	51.72015762329102	1440.748657226563	721.1709594726563	1051.999877929688	1263.473999023438	705.292724609375	191.6788635253906	1417.611450195313	667.6609497070313	199.4208984375	1376.8798828125	707.1365356445313	272.4052429199219	1428.990356445313	671.6094970703125	279.5588989257813	1389.199340820313	771.4068603515625	656.1915283203125	1412.945068359375	714.7158203125	657.2464599609375	1366.011596679688	770.28271484375	765.9656372070313	1412.11279296875	717.3659057617188	766.6981201171875	1367.403686523438	826.87060546875	449.7643432617188	1358.886352539063	
115	0.76	718.3718872070313	108.3054504394531	1047.048950195313	736.32080078125	115.3354110717773	1133.723388671875	905.6841430664063	1014.592224121094	1097.126098632813	812.1683349609375	922.4385986328125	1031.4697265625	645.6692504882813	41.09044647216797	1090.17529296875	667.9482421875	61.42833709716797	1047.84228515625	654.7018432617188	85.32260894775391	1091.5927734375	773.2160034179688	468.3349304199219	1036.38623046875	811.3778076171875	1083.5224609375	1044.313842773438	785.4818115234375	530.015380859375	1040.881469726563	767.4774169921875	517.98583984375	1166.384521484375	869.6077880859375	54.67721939086914	1128.1064453125	876.0113525390625	66.19015502929688	1089.104125976563	834.5769653320313	49.10197067260742	1013.250915527344	720.4539794921875	1055.337646484375	1160.078002929688	728.1928100585938	183.0440826416016	1039.228271484375	683.2164916992188	187.8964385986328	1063.751220703125	730.7438354492188	262.0044860839844	1020.973266601563	685.0823364257813	271.1492919921875	1047.410034179688	780.4017944335938	654.3688354492188	1022.596069335938	719.5977172851563	656.0950927734375	1060.703735351563	778.1343383789063	764.796875	1020.594055175781	723.4974975585938	766.676025390625	1061.986694335938	823.2120361328125	450.4872131347656	1090.542358398438	705.5625610351563	109.464958190918	1410.827880859375	726.7725219726563	115.2577209472656	1322.473999023438	894.61669921875	1011.67578125	1336.617797851563	805.1491088867188	924.0157470703125	1396.088989257813	635.5731201171875	43.61614227294922	1366.423461914063	666.7455444335938	63.08297348022461	1411.36376953125	644.0164794921875	87.34796142578125	1366.012573242188	775.84521484375	475.5469970703125	1408.754638671875	821.0704956054688	1081.72998046875	1384.720581054688	794.2623291015625	537.2112426757813	1400.419555664063	776.5643920898438	515.0324096679688	1275.489868164063	852.8084716796875	56.82609558105469	1323.853759765625	860.9658203125	73.54118347167969	1369.048706054688	827.9505615234375	51.71846008300781	1440.74267578125	721.1448974609375	1051.994750976563	1263.455078125	705.2771606445313	191.6742095947266	1417.600463867188	667.6576538085938	199.4216461181641	1376.870361328125	707.12548828125	272.4068298339844	1428.98974609375	671.6079711914063	279.5584106445313	1389.196533203125	771.3994750976563	656.1917724609375	1412.94091796875	714.7090454101563	657.2394409179688	1366.010375976563	770.267578125	765.9641723632813	1412.101440429688	717.3426513671875	766.70068359375	1367.408081054688	826.8698120117188	449.7736511230469	1358.879638671875	
116	0.7666666666666667	718.369140625	108.2942123413086	1047.05517578125	736.32470703125	115.3287582397461	1133.715698242188	905.664794921875	1014.595703125	1097.116455078125	812.1488037109375	922.4489135742188	1031.46728515625	645.6685791015625	41.08822631835938	1090.165161132813	667.9519653320313	61.42707824707031	1047.836547851563	654.7000732421875	85.32338714599609	1091.58642578125	773.2230224609375	468.3342590332031	1036.380981445313	811.3472290039063	1083.533081054688	1044.319580078125	785.4837646484375	530.0189819335938	1040.88232421875	767.4804077148438	517.999755859375	1166.382202148438	869.6028442382813	54.66617965698242	1128.097900390625	876.000244140625	66.18634033203125	1089.108642578125	834.5850219726563	49.09997940063477	1013.252685546875	720.4320678710938	1055.34228515625	1160.073120117188	728.1981201171875	183.0376586914063	1039.219360351563	683.2200317382813	187.9010467529297	1063.744873046875	730.7337646484375	262.0038757324219	1020.96826171875	685.0789794921875	271.1466369628906	1047.410888671875	780.3950805664063	654.3701782226563	1022.588439941406	719.6025390625	656.0858154296875	1060.695434570313	778.1320190429688	764.7984619140625	1020.588562011719	723.4880981445313	766.6798095703125	1061.9677734375	823.216064453125	450.4967041015625	1090.53076171875	705.564208984375	109.4589691162109	1410.826049804688	726.7665405273438	115.256462097168	1322.46923828125	894.5961303710938	1011.688903808594	1336.607055664063	805.1331787109375	924.0271606445313	1396.076782226563	635.5715942382813	43.61397171020508	1366.42578125	666.75439453125	63.08319091796875	1411.3681640625	644.0303955078125	87.33992004394531	1366.014282226563	775.8442993164063	475.5498657226563	1408.748168945313	821.0496215820313	1081.722778320313	1384.715698242188	794.2462158203125	537.2049560546875	1400.422119140625	776.5747680664063	515.0416259765625	1275.480834960938	852.8006591796875	56.81918716430664	1323.851684570313	860.965087890625	73.52938842773438	1369.057373046875	827.9474487304688	51.71638488769531	1440.741821289063	721.1302490234375	1051.990234375	1263.439208984375	705.2833862304688	191.6781921386719	1417.602294921875	667.6569213867188	199.4205017089844	1376.86181640625	707.1310424804688	272.3959045410156	1428.983276367188	671.6112670898438	279.560302734375	1389.191772460938	771.382080078125	656.1911010742188	1412.9287109375	714.7013549804688	657.24072265625	1366.008178710938	770.2440795898438	765.9673461914063	1412.093505859375	717.331787109375	766.6915893554688	1367.405029296875	826.86669921875	449.7744750976563	1358.878784179688	
